<svg id="Layer_1" data-name="Layer 1" xmlns="http://www.w3.org/2000/svg" viewBox="0 0 41 41">
    <title>github</title>
    <circle id="Oval-5" cx="20.5" cy="20.5" r="20" style="fill:#fff;stroke:#ecf0f1"/>
    <path d="M19.88,10.36a9.88,9.88,0,0,0-3.13,19.26c.49.09.68-.21.68-.48s0-.86,0-1.68c-2.75.6-3.33-1.33-3.33-1.33A2.61,2.61,0,0,0,13,24.69c-.9-.61.07-.6.07-.6a2.07,2.07,0,0,1,1.51,1,2.11,2.11,0,0,0,2.88.82,2.11,2.11,0,0,1,.63-1.32c-2.2-.25-4.5-1.1-4.5-4.88a3.82,3.82,0,0,1,1-2.65,3.51,3.51,0,0,1,.09-2.62s.83-.27,2.72,1a9.32,9.32,0,0,1,4.94,0c1.88-1.28,2.71-1,2.71-1a3.61,3.61,0,0,1,.1,2.62,3.83,3.83,0,0,1,1,2.65c0,3.8-2.31,4.63-4.51,4.88a2.36,2.36,0,0,1,.67,1.83c0,1.32,0,2.38,0,2.71s.17.57.68.47a9.87,9.87,0,0,0-3.1-19.24"
          transform="translate(0.5 0.5)" style="fill:#3e81c6"/>
</svg>